<svg width="50" height="26" xmlns="http://www.w3.org/2000/svg"><path d="M48.306 22.117l-4.718-1.426c3.11-1.78 4.336-3.516 4.42-3.638a.95.95 0 00.046-.987.983.983 0 00-.866-.508H34.314a.973.973 0 00-.983.963c0 .532.44.965.983.965H44.88c-.865.708-2.148 1.577-3.951 2.404l-6.31-1.906a.982.982 0 00-1.227.638.959.959 0 00.65 1.203l3.944 1.19a33.126 33.126 0 01-4.472 1.073.964.964 0 00-.8 1.115.975.975 0 001.134.783c2.925-.5 5.284-1.239 7.2-2.046l6.678 2.015a.985.985 0 001.23-.633.962.962 0 00-.651-1.205zM34.793 12.03a.59.59 0 01.595-.584h2.076v2.08h-2.076a.588.588 0 01-.595-.584v-.912zm4.637 1.497h2.786v-2.08H39.43v2.08zm4.75-2.08h2.017a.59.59 0 01.594.583v.912a.59.59 0 01-.594.585H44.18v-2.08zm-9.748 3.711h12.722c.843 0 1.528-.67 1.528-1.498v-2.346c0-.829-.685-1.499-1.528-1.499H34.432c-.846 0-1.532.67-1.532 1.5v2.345c0 .828.686 1.498 1.532 1.498zm1.234-8.393h10.18v.163a.676.676 0 01-.68.668h-8.82c-.375 0-.68-.3-.68-.668v-.163zm0-1.701c0-.368.305-.667.68-.667h8.82c.374 0 .68.3.68.667v.162h-10.18v-.162zm.02 4.37h10.21c1.232 0 2.228-.978 2.228-2.183V4.74c0-1.207-.996-2.182-2.228-2.182h-10.21c-1.23 0-2.227.975-2.227 2.182v2.51c0 1.205.998 2.184 2.228 2.184zm-6.214 6.152c-.648 0-1.178.517-1.178 1.154v5.265c0 .638.53 1.156 1.178 1.156.655 0 1.181-.518 1.181-1.156V16.74c0-.637-.526-1.154-1.18-1.154zm0-6.478c-.648 0-1.178.516-1.178 1.156v2.554c0 .64.53 1.157 1.178 1.157.655 0 1.181-.517 1.181-1.157v-2.554c0-.64-.526-1.156-1.18-1.156zm0-6.614c-.648 0-1.178.515-1.178 1.155v2.555c0 .636.53 1.155 1.178 1.155.655 0 1.181-.519 1.181-1.155V3.648c0-.64-.526-1.155-1.18-1.155zM20.324 5.26h-1.198l.394-1.87a1.153 1.153 0 00-.913-1.365c-.64-.13-1.263.27-1.396.896l-.494 2.34h-3.282c-.651 0-1.18.515-1.18 1.155 0 .638.529 1.154 1.18 1.154h2.788l-3.161 14.907c-.135.624.276 1.235.913 1.367a1.176 1.176 0 001.396-.898L18.635 7.57h1.688a1.04 1.04 0 011.048 1.028v11.93a1.04 1.04 0 01-1.048 1.029h-1.646c-.65 0-1.178.517-1.178 1.155 0 .639.528 1.156 1.178 1.156h1.646c1.878 0 3.407-1.498 3.407-3.34V8.599c0-1.838-1.529-3.338-3.407-3.338zm-9.2 5.606c.65 0 1.177-.519 1.177-1.155 0-.639-.526-1.156-1.178-1.156H2.181C1.528 8.555 1 9.072 1 9.711c0 .636.528 1.155 1.181 1.155H3.69L1.764 22.66a1.13 1.13 0 00.266.931c.224.258.552.406.9.406h5.737c1.881 0 3.41-1.498 3.41-3.34v-1.042c0-.64-.53-1.157-1.18-1.157-.653 0-1.18.517-1.18 1.157v1.043a1.04 1.04 0 01-1.05 1.028H4.31l1.766-10.82h5.046zM2.93 5.507h7.443c.651 0 1.18-.516 1.18-1.154 0-.64-.529-1.155-1.18-1.155H2.93c-.651 0-1.181.515-1.181 1.155 0 .638.53 1.154 1.181 1.154z" fill="#FFF" fill-rule="evenodd" opacity=".8"/></svg>