<?xml version="1.0" encoding="UTF-8"?>
<svg width="12px" height="12px" viewBox="0 0 12 12" version="1.1" xmlns="http://www.w3.org/2000/svg" xmlns:xlink="http://www.w3.org/1999/xlink">
    <!-- Generator: Sketch 58 (84663) - https://sketch.com -->
    <title>ykpc_tanchuang_guanbi</title>
    <desc>Created with Sketch.</desc>
    <g id="组件" stroke="none" stroke-width="1" fill="none" fill-rule="evenodd">
        <g id="ykpc_tanchuang_guanbi" fill="#FFFFFF">
            <g id="关闭">
                <path d="M7.0131614,6.02097902 L9.80583422,8.85156143 C10.095025,9.14467783 10.095025,9.61991342 9.80583422,9.91302983 C9.51664348,10.2061462 9.04777265,10.2061462 8.75858191,9.91302983 L5.96590909,7.08244742 L3.17323627,9.91302983 C2.88404553,10.2061462 2.4151747,10.2061462 2.12598396,9.91302983 C1.83679322,9.61991342 1.83679322,9.14467783 2.12598396,8.85156143 L4.91865678,6.02097902 L2.12598396,3.19039662 C1.83679322,2.89728021 1.83679322,2.42204462 2.12598396,2.12892821 C2.4151747,1.83581181 2.88404553,1.83581181 3.17323627,2.12892821 L5.96590909,4.95951062 L8.75858191,2.12892821 C9.04777265,1.83581181 9.51664348,1.83581181 9.80583422,2.12892821 C10.095025,2.42204462 10.095025,2.89728021 9.80583422,3.19039662 L7.0131614,6.02097902 Z" id="Combined-Shape"></path>
            </g>
        </g>
    </g>
</svg>