<?xml version="1.0" encoding="UTF-8"?>
<svg width="24px" height="24px" viewBox="0 0 24 24" version="1.1" xmlns="http://www.w3.org/2000/svg" xmlns:xlink="http://www.w3.org/1999/xlink">
    <!-- Generator: Sketch 58 (84663) - https://sketch.com -->
    <title>icon/24-评论-彩</title>
    <desc>Created with Sketch.</desc>
    <defs>
        <linearGradient x1="50%" y1="0%" x2="50%" y2="100%" id="linearGradient-1">
            <stop stop-color="#1ECBFF" offset="0%"></stop>
            <stop stop-color="#0D9BFF" offset="100%"></stop>
        </linearGradient>
    </defs>
    <g id="播放页" stroke="none" stroke-width="1" fill="none" fill-rule="evenodd">
        <g id="播放页切图" transform="translate(-425.000000, -349.000000)">
            <g id="icon/24-简介-彩备份-3" transform="translate(425.000000, 349.000000)">
                <path d="M12,3 C16.9705627,3 21,7.02943725 21,12 C21,16.0549257 18.3183687,19.4835228 14.6317975,20.6090999 L14.647714,20.6146076 C10.9214165,21.7323709 3.4656469,21.0473988 2.7816292,19.7677815 C2.09761151,18.4881641 5.28834277,18.8162926 4.88699323,17.5201975 L4.85913625,17.49 L4.83799739,17.4801976 C4.80162985,17.4133102 4.75939047,17.3500406 4.71869905,17.2919817 L4.65975036,17.2090003 C3.61456818,15.7388431 3,13.9411916 3,12 C3,7.02943725 7.02943725,3 12,3 Z" id="Combined-Shape" stroke="#000000" stroke-width="1.5" stroke-linecap="round" stroke-linejoin="round"></path>
                <path d="M12,3 C16.9705627,3 21,7.02943725 21,12 C21,16.0549257 18.3183687,19.4835228 14.6317975,20.6090999 L14.647714,20.6146076 C10.9214165,21.7323709 3.4656469,21.0473988 2.7816292,19.7677815 C2.09761151,18.4881641 5.28834277,18.8162926 4.88699323,17.5201975 L4.85913625,17.49 L4.83799739,17.4801976 C4.80162985,17.4133102 4.75939047,17.3500406 4.71869905,17.2919817 L4.65975036,17.2090003 C3.61456818,15.7388431 3,13.9411916 3,12 C3,7.02943725 7.02943725,3 12,3 Z" id="形状结合" stroke="url(#linearGradient-1)" stroke-width="1.75" stroke-linecap="round" stroke-linejoin="round"></path>
                <path d="M16.2179755,10.2901413 C16.9083314,10.2901413 17.4679755,10.8497853 17.4679755,11.5401413 L17.4679755,12.0357143 C17.4679755,12.7260702 16.9083314,13.2857143 16.2179755,13.2857143 C15.5276195,13.2857143 14.9679755,12.7260702 14.9679755,12.0357143 L14.9679755,11.5401413 C14.9679755,10.8497853 15.5276195,10.2901413 16.2179755,10.2901413 Z" id="Rectangle-Copy" fill="#16B3FF"></path>
                <path d="M12.017975,10.2901413 C12.7083309,10.2901413 13.267975,10.8497853 13.267975,11.5401413 L13.267975,12.0357143 C13.267975,12.7260702 12.7083309,13.2857143 12.017975,13.2857143 C11.3276191,13.2857143 10.767975,12.7260702 10.767975,12.0357143 L10.767975,11.5401413 C10.767975,10.8497853 11.3276191,10.2901413 12.017975,10.2901413 Z" id="Rectangle-Copy" fill="#16B3FF"></path>
                <path d="M7.817975,10.2901413 C8.50833094,10.2901413 9.067975,10.8497853 9.067975,11.5401413 L9.067975,12.0357143 C9.067975,12.7260702 8.50833094,13.2857143 7.817975,13.2857143 C7.12761906,13.2857143 6.567975,12.7260702 6.567975,12.0357143 L6.567975,11.5401413 C6.567975,10.8497853 7.12761906,10.2901413 7.817975,10.2901413 Z" id="Rectangle-Copy" fill="#16B3FF"></path>
            </g>
        </g>
    </g>
</svg>