<svg width="26" height="21" xmlns="http://www.w3.org/2000/svg"><g fill="none" fill-rule="evenodd"><path d="M-2-4h30v30H-2z"/><path d="M13.764 12.374l-.002 6.768a.75.75 0 11-1.5 0l.002-6.772-1.348 1.348a.75.75 0 01-1.06-1.06l2.626-2.627a.75.75 0 011.06 0l2.627 2.626a.75.75 0 11-1.06 1.061l-1.345-1.344zM13.125 1c3.948 0 7.269 2.84 7.886 6.62 2.529.98 4.239 3.26 4.239 5.855 0 3.53-3.13 6.358-6.955 6.358-.386 0-.77-.029-1.146-.086a.75.75 0 11.225-1.483c.302.046.61.07.921.07 3.029 0 5.455-2.193 5.455-4.859 0-2.066-1.47-3.902-3.646-4.584a.75.75 0 01-.522-.64C19.256 5.001 16.47 2.5 13.125 2.5c-3.345 0-6.13 2.502-6.457 5.75a.75.75 0 01-.522.641C3.97 9.573 2.5 11.41 2.5 13.475c0 2.666 2.426 4.858 5.455 4.858.311 0 .619-.023.921-.069a.75.75 0 01.225 1.483c-.377.057-.76.086-1.146.086C4.13 19.833 1 17.005 1 13.475 1 10.88 2.71 8.6 5.239 7.62 5.856 3.84 9.177 1 13.125 1z" stroke="#FFF" stroke-width=".4" fill="#FFF" fill-rule="nonzero" opacity=".38"/></g></svg>